#!OML:ASF E:\emotionWalksFemale\Project 1\Capture day 1\Session 1\Female1.ASF
:FULLY-SPECIFIED
:DEGREES
295
root 8.46283 14.9628 23.1044 187.249 9.25914 181.357
lowerback 13.2354 0.26899 1.52955
upperback -3.4458 0.753022 0.960764
thorax -11.2083 0.301885 0.00751674
lowerneck -7.0994 0.0606619 -4.25177
upperneck -5.22718 0.858252 4.87003
head -0.468827 0.665564 2.27976
rclavicle -4.05024e-015 -1.39149e-015
rhumerus -39.9798 3.20367 -78.1548
rradius 35.68
rwrist 18.5428
rhand -4.92315 -49.8404
rfingers 7.12502
rthumb 20.8673 -78.7382
lclavicle -4.05024e-015 -1.39149e-015
lhumerus -42.9791 -2.1551 83.4451
lradius 35.6075
lwrist -11.6013
lhand 0.275607 -34.114
lfingers 7.12502
lthumb 25.8543 -5.85146
rfemur -21.7964 6.3957 24.1204
rtibia 40.2664
rfoot -25.4057 -17.5939
rtoes -14.3398
lfemur -24.0064 -0.640416 -22.3481
ltibia 44.2926
lfoot -30.8237 10.8731
ltoes -32.6694
296
root 8.46304 14.914 23.1117 187.622 8.88926 181.558
lowerback 13.0247 0.180812 1.70912
upperback -3.15189 0.66359 1.04354
thorax -10.7548 0.25482 0.0162106
lowerneck -7.63471 0.0980028 -4.01136
upperneck -5.57255 0.965923 4.63379
head -0.491061 0.742519 2.16175
rclavicle 7.35503e-015 -3.97569e-015
rhumerus -39.0922 3.0062 -77.8535
rradius 35.4405
rwrist 19.2619
rhand -3.28081 -50.2238
rfingers 7.12502
rthumb 22.4444 -78.9397
lclavicle 7.35503e-015 -3.97569e-015
lhumerus -42.2968 -2.79145 83.9315
lradius 35.8424
lwrist -10.2461
lhand -0.28666 -33.9898
lfingers 7.12502
lthumb 25.3158 -5.64989
rfemur -22.8627 5.8886 24.3952
rtibia 41.6441
rfoot -26.2183 -17.2862
rtoes -12.4843
lfemur -25.1619 -0.595833 -22.1083
ltibia 45.6333
lfoot -31.1747 10.384
ltoes -32.346
297
root 8.46347 14.8643 23.1178 188.003 8.51762 181.603
lowerback 13.1065 0.098188 1.70158
upperback -3.07227 0.563129 1.13431
thorax -10.7166 0.212143 0.140348
lowerneck -7.99621 0.152775 -3.94194
upperneck -5.89044 1.09444 4.47022
head -0.535736 0.827289 2.09893
rclavicle -1.3418e-015 2.78299e-015
rhumerus -38.4565 3.275 -77.761
rradius 34.9413
rwrist 18.4497
rhand -4.17833 -49.8786
rfingers 7.12502
rthumb 21.5827 -78.6959
lclavicle -1.3418e-015 2.78299e-015
lhumerus -41.9704 -3.24893 84.4194
lradius 36.1857
lwrist -9.19385
lhand -0.831695 -33.9668
lfingers 7.12502
lthumb 24.7935 -5.55398
rfemur -23.9846 5.35528 24.5116
rtibia 43.0454
rfoot -27.0725 -17.1383
rtoes -11.6363
lfemur -26.3529 -0.521634 -22.0487
ltibia 46.9568
lfoot -31.5065 9.86976
ltoes -31.5311
298
root 8.46336 14.8096 23.1266 188.358 8.0415 181.494
lowerback 13.4255 -0.00451208 1.60544
upperback -3.10551 0.421589 1.16745
thorax -10.9443 0.150928 0.262282
lowerneck -8.23776 0.20627 -3.9089
upperneck -6.31119 1.22944 4.35994
head -0.63365 0.916994 2.05958
rclavicle 2.93456e-014 -2.00773e-014
rhumerus -37.8296 3.49998 -77.643
rradius 34.4185
rwrist 17.8243
rhand -4.02225 -50.0974
rfingers 7.12502
rthumb 21.7326 -78.8974
lclavicle 2.93456e-014 -2.00773e-014
lhumerus -41.7995 -3.74105 84.928
lradius 36.6146
lwrist -8.45172
lhand -1.23709 -34.1602
lfingers 7.12502
lthumb 24.4049 -5.69447
rfemur -25.1353 4.77391 24.4899
rtibia 44.5031
rfoot -27.8505 -17.2614
rtoes -11.6584
lfemur -27.5693 -0.566691 -22.1615
ltibia 48.2874
lfoot -31.9148 9.53665
ltoes -31.1059
299
root 8.46527 14.7543 23.1397 188.749 7.73976 181.43
lowerback 13.6578 -0.0245702 1.50993
upperback -3.05502 0.383625 1.18206
thorax -11.0258 0.139228 0.340763
lowerneck -8.65897 0.241521 -3.81584
upperneck -6.73264 1.35283 4.20912
head -0.700788 1.00738 1.99717
rclavicle 2.23633e-015 -1.59028e-015
rhumerus -37.0325 3.541 -77.544
rradius 33.9383
rwrist 17.1539
rhand -3.61212 -50.6101
rfingers 7.12502
rthumb 22.1264 -79.364
lclavicle 2.23633e-015 -1.59028e-015
lhumerus -41.51 -4.3832 85.431
lradius 37.0823
lwrist -7.93697
lhand -3.31427 -35.3193
lfingers 7.12502
lthumb 22.4123 -6.59957
rfemur -26.4014 4.30843 24.5196
rtibia 46.0173
rfoot -28.2992 -17.5168
rtoes -12.0688
lfemur -28.8125 -0.508825 -22.2181
ltibia 49.627
lfoot -32.2995 9.11336
ltoes -30.7806
300
root 8.46837 14.6975 23.1573 189.244 7.75987 181.342
lowerback 13.6472 0.0908174 1.245
upperback -2.96717 0.48761 1.18407
thorax -10.9223 0.206071 0.468561
lowerneck -8.97369 0.263675 -3.52387
upperneck -7.25934 1.43867 3.84207
head -0.814444 1.07586 1.82673
rclavicle -9.44227e-015 -2.88238e-014
rhumerus -36.2776 3.44663 -77.4038
rradius 33.7246
rwrist 16.6509
rhand -3.27615 -51.3463
rfingers 7.12502
rthumb 22.4489 -80.0617
lclavicle -9.44227e-015 -2.88238e-014
lhumerus -41.2156 -4.96404 85.8226
lradius 37.6261
lwrist -7.79822
lhand -6.92338 -37.5607
lfingers 7.12502
lthumb 18.9445 -8.46324
rfemur -27.8726 4.08782 24.4749
rtibia 47.5605
rfoot -28.4585 -17.7246
rtoes -13.127
lfemur -30.1826 -0.169469 -22.3405
ltibia 50.9796
lfoot -32.6831 8.71523
ltoes -31.0628
301
root 8.47124 14.6324 23.1752 189.677 7.56152 181.214
lowerback 12.9909 0.0871851 1.29934
upperback -2.49979 0.439312 0.940003
thorax -10.0144 0.172712 0.18304
lowerneck -9.26595 0.28648 -2.93718
upperneck -8.11587 1.55034 3.56816
head -1.03545 1.16632 1.63525
rclavicle 1.56543e-014 1.39149e-015
rhumerus -34.9503 2.86287 -77.5836
rradius 33.3613
rwrist 16.1502
rhand -3.56471 -51.9416
rfingers 7.12502
rthumb 22.1719 -80.6901
lclavicle 1.56543e-014 1.39149e-015
lhumerus -40.3177 -5.59389 85.7084
lradius 38.0714
lwrist -7.92268
lhand -8.99768 -39.132
lfingers 7.12502
lthumb 16.9487 -9.85149
rfemur -29.2427 3.81672 24.4037
rtibia 49.11
rfoot -28.8622 -17.8867
rtoes -13.277
lfemur -31.5403 -0.0266591 -22.4828
ltibia 52.3543
lfoot -33.0473 8.39246
ltoes -31.2658
